<svg width="1200" height="606" viewBox="0 0 1200 606" xmlns="http://www.w3.org/2000/svg"><defs><pattern id="satori_pattern_id_0" x="0" y="0" width="1" height="1" patternUnits="objectBoundingBox"><linearGradient id="satori_biid_0" x1="-0.09774620284174435" y1="0.18618324350808482" x2="1.0977462028417444" y2="0.8138167564919152" spreadMethod="pad"><stop offset="0%" stop-color="#ffffff"/><stop offset="50%" stop-color="#e5e5e5"/><stop offset="100%" stop-color="#a3d5f7"/></linearGradient><rect x="0" y="0" width="1200" height="630" fill="url(#satori_biid_0)"/></pattern></defs><clipPath id="satori_cp-id"><rect x="0" y="0" width="1200" height="630"/></clipPath><mask id="satori_om-id"><rect x="0" y="0" width="1200" height="630" fill="#fff"/></mask><rect x="0" y="0" width="1200" height="630" fill="url(#satori_pattern_id_0)"/><mask id="satori_om-id-0"><rect x="-100" y="-200" width="500" height="500" fill="#fff" mask="url(#satori_om-id)"/></mask><path x="-100" y="-200" width="500" height="500" fill="rgba(163, 213, 247, 0.2)" d="M150,-200 h0 a250,250 0 0 1 250,250 v0 a250,250 0 0 1 -250,250 h0 a250,250 0 0 1 -250,-250 v0 a250,250 0 0 1 250,-250" clip-path="url(#satori_cp-id)" mask="url(#satori_om-id)"/><mask id="satori_om-id-1"><rect x="700" y="430" width="300" height="300" fill="#fff" mask="url(#satori_om-id)"/></mask><path x="700" y="430" width="300" height="300" fill="rgba(229, 229, 229, 0.3)" d="M850,430 h0 a150,150 0 0 1 150,150 v0 a150,150 0 0 1 -150,150 h0 a150,150 0 0 1 -150,-150 v0 a150,150 0 0 1 150,-150" clip-path="url(#satori_cp-id)" mask="url(#satori_om-id)"/><mask id="satori_om-id-2"><rect x="1076" y="532" width="84" height="58" fill="#fff" mask="url(#satori_om-id)"/></mask><path fill="#2c3e50" d="M1089.8 564.1L1077.2 543.6L1082.1 543.6L1091.8 559.9L1092.2 559.9L1101.8 543.6L1106.7 543.6L1094.1 564.1L1094.1 578.5L1089.8 578.5L1089.8 564.1ZM1114.9 578.8L1114.9 578.8Q1113.6 578.8 1112.7 577.9Q1111.8 577.0 1111.8 575.7L1111.8 575.7Q1111.8 574.4 1112.7 573.5Q1113.6 572.6 1114.9 572.6L1114.9 572.6Q1116.1 572.6 1117.1 573.5Q1118.0 574.4 1118.0 575.7L1118.0 575.7Q1118.0 576.5 1117.5 577.2Q1117.1 577.9 1116.4 578.4Q1115.7 578.8 1114.9 578.8ZM1139.6 549.1L1129.2 578.5L1124.7 578.5L1137.5 543.6L1141.9 543.6L1154.7 578.5L1150.3 578.5L1139.9 549.1L1139.6 549.1ZM1130.8 568.6L1130.8 564.9L1148.7 564.9L1148.7 568.6L1130.8 568.6Z " clip-path="url(#satori_cp-id)" mask="url(#satori_om-id)"/></svg>